<svg width="1682" height="216" viewBox="0 0 1682 216" fill="none" xmlns="http://www.w3.org/2000/svg">
<path d="M287.096 156.207C280.499 156.207 274.793 154.673 269.975 151.605C265.159 148.506 261.431 144.226 258.792 138.765C256.184 133.273 254.88 126.952 254.88 119.804C254.88 112.685 256.184 106.365 258.792 100.842C261.431 95.2884 265.067 90.9472 269.699 87.8174C274.363 84.6573 279.748 83.0771 285.854 83.0771C289.689 83.0771 293.386 83.7829 296.945 85.1943C300.504 86.575 303.695 88.7073 306.518 91.5913C309.371 94.4447 311.626 98.0502 313.283 102.407C314.94 106.733 315.768 111.857 315.768 117.778V121.828H260.541V114.603H307.392C307.392 110.062 306.472 105.981 304.631 102.361C302.82 98.7094 300.289 95.8254 297.037 93.7086C293.815 91.5913 290.088 90.5329 285.854 90.5329C281.374 90.5329 277.431 91.7296 274.026 94.1229C270.62 96.5157 267.951 99.6762 266.018 103.604C264.115 107.531 263.149 111.826 263.118 116.49V120.816C263.118 126.431 264.085 131.34 266.018 135.543C267.981 139.716 270.758 142.953 274.348 145.254C277.938 147.555 282.187 148.706 287.096 148.706C290.441 148.706 293.37 148.184 295.886 147.141C298.433 146.098 300.565 144.702 302.283 142.953C304.033 141.173 305.352 139.225 306.241 137.108L314.02 139.639C312.946 142.615 311.181 145.362 308.727 147.877C306.303 150.393 303.265 152.418 299.614 153.952C295.994 155.456 291.821 156.207 287.096 156.207ZM359.271 156.207C353.472 156.207 348.395 154.673 344.037 151.605C339.681 148.537 336.275 144.257 333.821 138.765C331.397 133.273 330.185 126.875 330.185 119.573C330.185 112.302 331.397 105.935 333.821 100.474C336.275 94.9817 339.696 90.717 344.084 87.6796C348.471 84.6115 353.58 83.0771 359.409 83.0771C363.705 83.0771 367.279 83.8443 370.132 85.3783C372.986 86.8817 375.272 88.7535 376.99 90.993C378.708 93.2329 380.043 95.4115 380.994 97.5283H381.73V60.48H389.969V154.735H381.961V141.618H380.994C380.043 143.766 378.693 145.975 376.944 148.246C375.195 150.485 372.879 152.372 369.995 153.906C367.141 155.441 363.566 156.207 359.271 156.207ZM360.237 148.706C364.809 148.706 368.706 147.463 371.927 144.978C375.149 142.462 377.603 139.01 379.291 134.623C381.009 130.204 381.869 125.142 381.869 119.435C381.869 113.79 381.024 108.804 379.337 104.478C377.65 100.121 375.195 96.7153 371.974 94.2607C368.752 91.7754 364.84 90.5329 360.237 90.5329C355.513 90.5329 351.524 91.8216 348.272 94.3989C345.05 96.9456 342.595 100.397 340.908 104.754C339.251 109.111 338.423 114.004 338.423 119.435C338.423 124.927 339.266 129.883 340.954 134.301C342.642 138.719 345.096 142.232 348.318 144.84C351.57 147.417 355.543 148.706 360.237 148.706ZM458.218 127.719V84.0439H466.413V154.735H458.218V142.999H457.574C455.92 146.619 453.293 149.641 449.703 152.065C446.118 154.459 441.729 155.655 436.545 155.655C432.035 155.655 428.029 154.673 424.532 152.709C421.034 150.715 418.287 147.801 416.293 143.965C414.299 140.13 413.302 135.42 413.302 129.836V84.0439H421.494V129.33C421.494 134.853 423.12 139.302 426.372 142.677C429.624 146.021 433.797 147.693 438.89 147.693C442.083 147.693 445.15 146.926 448.096 145.392C451.038 143.858 453.466 141.618 455.367 138.673C457.268 135.696 458.218 132.046 458.218 127.719ZM507.198 60.48V154.735H484.419V60.48H507.198ZM556.338 154.735H521.502V60.48H556.295C565.898 60.48 574.167 62.367 581.101 66.1409C588.064 69.8842 593.434 75.2842 597.21 82.3409C600.981 89.367 602.869 97.7737 602.869 107.562C602.869 117.38 600.981 125.817 597.21 132.874C593.464 139.931 588.112 145.346 581.148 149.12C574.18 152.863 565.911 154.735 556.338 154.735ZM544.281 135.313H555.466C560.745 135.313 565.207 134.423 568.858 132.644C572.538 130.833 575.316 127.904 577.187 123.854C579.092 119.773 580.042 114.342 580.042 107.562C580.042 100.781 579.092 95.3809 577.187 91.3615C575.286 87.3115 572.478 84.3964 568.767 82.617C565.086 80.8069 560.542 79.9019 555.142 79.9019H544.281V135.313Z" fill="black"/>
<path d="M107.999 0C48.3533 0 0 48.3538 0 108C0 167.646 48.3533 216 107.999 216C167.646 216 215.999 167.646 215.999 108C215.999 48.3538 167.646 0 107.999 0Z" fill="#171717"/>
<path d="M147.661 146.479C147.661 150.663 144.268 154.057 140.083 154.057H75.7293C71.5432 154.057 68.1507 150.663 68.1507 146.479V124.974H147.661V146.479Z" fill="white"/>
<path d="M147.661 115.661H68.1507V98.81H130.976V86.3822C130.976 73.4689 120.471 62.9644 107.559 62.9644C94.6453 62.9644 84.1399 73.4689 84.1399 86.3822H72.107C72.107 66.8338 88.0102 50.9306 107.559 50.9306C127.107 50.9306 143.009 66.8338 143.009 86.3822V98.81H147.661V115.661Z" fill="white"/>
<path d="M655.5 62H642V155.125H652.625V84.375H653.5L682.438 155.125H692.562L721.875 84.375H722.75V155.125H733.812V62H719.875L688.25 139.25H687.125L655.5 62Z" fill="#CA402B"/>
<path fill-rule="evenodd" clip-rule="evenodd" d="M1149.1 115.078C1149.02 115.121 1148.95 115.164 1148.88 115.208V62H1138.25V96.375H1137.38C1136.58 95.1667 1135.48 93.625 1134.06 91.75C1132.65 89.8333 1130.6 88.125 1127.94 86.625C1125.31 85.125 1121.71 84.375 1117.12 84.375C1111.25 84.375 1106.08 85.8542 1101.62 88.8125C1097.17 91.7292 1093.67 95.8958 1091.12 101.312C1088.62 106.688 1087.38 113.042 1087.38 120.375C1087.38 127.75 1088.62 134.167 1091.12 139.625C1093.62 145.042 1097.1 149.229 1101.56 152.188C1106.02 155.146 1111.17 156.625 1117 156.625C1121.5 156.625 1125.08 155.875 1127.75 154.375C1130.46 152.833 1132.54 151.104 1134 149.188C1135.46 147.229 1136.58 145.625 1137.38 144.375H1137.75V144.125H1139.85C1143.34 151.609 1150.83 156.854 1159.57 157.115L1163.44 145.691C1162.43 145.984 1161.36 146.141 1160.25 146.141C1153.9 146.141 1148.75 140.992 1148.75 134.641C1148.75 133.818 1148.84 133.016 1149 132.242L1149.1 115.078ZM1118.38 147C1122.71 147 1126.35 145.875 1129.31 143.625C1132.27 141.333 1134.52 138.188 1136.06 134.188C1137.6 130.146 1138.38 125.5 1138.38 120.25C1138.38 115 1137.62 110.417 1136.12 106.5C1134.62 102.542 1132.38 99.4792 1129.38 97.3125C1126.42 95.1042 1122.75 94 1118.38 94C1113.88 94 1110.12 95.1667 1107.12 97.5C1104.12 99.8333 1101.88 102.979 1100.38 106.938C1098.88 110.896 1098.12 115.333 1098.12 120.25C1098.12 125.208 1098.88 129.708 1100.38 133.75C1101.92 137.792 1104.19 141.021 1107.19 143.438C1110.19 145.812 1113.92 147 1118.38 147Z" fill="#CA402B"/>
<path fill-rule="evenodd" clip-rule="evenodd" d="M1166.17 156.339C1172.6 154.591 1177.88 150.063 1180.65 144.125H1180.77L1186.21 128.75H1223.87L1233.25 155.125H1245L1210.88 62H1199.25L1182.03 108.813L1180.59 113.057L1180.83 113.137L1166.17 156.339ZM1205.38 76.75L1220.31 118.75H1189.75L1204.62 76.75H1205.38Z" fill="#CA402B"/>
<path d="M1280.38 156.625C1273.88 156.625 1268.25 155.083 1263.5 152C1258.79 148.875 1255.15 144.604 1252.56 139.188C1250.02 133.771 1248.75 127.583 1248.75 120.625C1248.75 113.5 1250.06 107.229 1252.69 101.812C1255.31 96.3542 1258.98 92.0833 1263.69 89C1268.44 85.9167 1273.96 84.375 1280.25 84.375C1285.17 84.375 1289.58 85.2917 1293.5 87.125C1297.46 88.9167 1300.69 91.4583 1303.19 94.75C1305.73 98.0417 1307.29 101.875 1307.88 106.25H1297.12C1296.58 104.125 1295.6 102.125 1294.19 100.25C1292.77 98.375 1290.9 96.875 1288.56 95.75C1286.27 94.5833 1283.54 94 1280.38 94C1276.21 94 1272.56 95.0833 1269.44 97.25C1266.31 99.4167 1263.88 102.479 1262.12 106.438C1260.38 110.354 1259.5 114.958 1259.5 120.25C1259.5 125.625 1260.35 130.333 1262.06 134.375C1263.77 138.375 1266.19 141.479 1269.31 143.688C1272.48 145.896 1276.17 147 1280.38 147C1284.58 147 1288.19 145.917 1291.19 143.75C1294.19 141.542 1296.17 138.542 1297.12 134.75H1307.88C1307.29 138.875 1305.79 142.583 1303.38 145.875C1301 149.167 1297.85 151.792 1293.94 153.75C1290.06 155.667 1285.54 156.625 1280.38 156.625Z" fill="#CA402B"/>
<path d="M1346.25 156.625C1339.75 156.625 1334.12 155.083 1329.38 152C1324.67 148.875 1321.02 144.604 1318.44 139.188C1315.9 133.771 1314.62 127.583 1314.62 120.625C1314.62 113.5 1315.94 107.229 1318.56 101.812C1321.19 96.3542 1324.85 92.0833 1329.56 89C1334.31 85.9167 1339.83 84.375 1346.12 84.375C1351.04 84.375 1355.46 85.2917 1359.38 87.125C1363.33 88.9167 1366.56 91.4583 1369.06 94.75C1371.6 98.0417 1373.17 101.875 1373.75 106.25H1363C1362.46 104.125 1361.48 102.125 1360.06 100.25C1358.65 98.375 1356.77 96.875 1354.44 95.75C1352.15 94.5833 1349.42 94 1346.25 94C1342.08 94 1338.44 95.0833 1335.31 97.25C1332.19 99.4167 1329.75 102.479 1328 106.438C1326.25 110.354 1325.38 114.958 1325.38 120.25C1325.38 125.625 1326.23 130.333 1327.94 134.375C1329.65 138.375 1332.06 141.479 1335.19 143.688C1338.35 145.896 1342.04 147 1346.25 147C1350.46 147 1354.06 145.917 1357.06 143.75C1360.06 141.542 1362.04 138.542 1363 134.75H1373.75C1373.17 138.875 1371.67 142.583 1369.25 145.875C1366.88 149.167 1363.73 151.792 1359.81 153.75C1355.94 155.667 1351.42 156.625 1346.25 156.625Z" fill="#CA402B"/>
<path fill-rule="evenodd" clip-rule="evenodd" d="M1412.12 156.625C1405.83 156.625 1400.31 155.125 1395.56 152.125C1390.81 149.125 1387.1 144.917 1384.44 139.5C1381.81 134.083 1380.5 127.792 1380.5 120.625C1380.5 113.333 1381.81 106.979 1384.44 101.562C1387.1 96.1042 1390.81 91.875 1395.56 88.875C1400.31 85.875 1405.83 84.375 1412.12 84.375C1418.46 84.375 1424 85.875 1428.75 88.875C1433.5 91.875 1437.21 96.1042 1439.88 101.562C1442.54 106.979 1443.88 113.333 1443.88 120.625C1443.88 127.792 1442.54 134.083 1439.88 139.5C1437.21 144.917 1433.5 149.125 1428.75 152.125C1424 155.125 1418.46 156.625 1412.12 156.625ZM1412.12 147C1416.96 147 1420.92 145.771 1424 143.312C1427.08 140.854 1429.38 137.625 1430.88 133.625C1432.38 129.583 1433.12 125.25 1433.12 120.625C1433.12 115.917 1432.38 111.542 1430.88 107.5C1429.38 103.458 1427.08 100.208 1424 97.75C1420.92 95.25 1416.96 94 1412.12 94C1407.38 94 1403.46 95.25 1400.38 97.75C1397.29 100.208 1395 103.458 1393.5 107.5C1392 111.542 1391.25 115.917 1391.25 120.625C1391.25 125.25 1392 129.583 1393.5 133.625C1395 137.625 1397.29 140.854 1400.38 143.312C1403.46 145.771 1407.38 147 1412.12 147Z" fill="#CA402B"/>
<path d="M1498.25 126.625V85.25H1508.88V155.125H1498.25V143.25H1497.5C1495.83 146.792 1493.27 149.812 1489.81 152.312C1486.4 154.812 1482.04 156.042 1476.75 156C1472.38 156 1468.5 155.062 1465.12 153.188C1461.75 151.271 1459.08 148.354 1457.12 144.438C1455.21 140.521 1454.25 135.583 1454.25 129.625V85.25H1464.88V129C1464.88 134.042 1466.31 138.083 1469.19 141.125C1472.1 144.167 1475.79 145.667 1480.25 145.625C1482.92 145.625 1485.62 144.958 1488.38 143.625C1491.17 142.25 1493.5 140.167 1495.38 137.375C1497.29 134.542 1498.25 130.958 1498.25 126.625Z" fill="#CA402B"/>
<path d="M1533.25 113.125V155.125H1522.62V85.25H1532.88V96.25H1533.88C1535.5 92.6667 1537.98 89.7917 1541.31 87.625C1544.65 85.4583 1548.96 84.375 1554.25 84.375C1558.96 84.375 1563.08 85.3333 1566.62 87.25C1570.17 89.1667 1572.92 92.0833 1574.88 96C1576.88 99.875 1577.88 104.792 1577.88 110.75V155.125H1567.25V111.5C1567.25 106.042 1565.81 101.771 1562.94 98.6875C1560.06 95.5625 1556.15 94 1551.19 94C1547.77 94 1544.71 94.75 1542 96.25C1539.29 97.75 1537.15 99.9167 1535.56 102.75C1534.02 105.583 1533.25 109.042 1533.25 113.125Z" fill="#CA402B"/>
<path d="M1621.88 85.25V94.375H1606.88V135.125C1606.88 138.75 1607.62 141.417 1609.12 143.125C1610.62 144.792 1613 145.625 1616.25 145.625C1616.96 145.625 1617.69 145.583 1618.44 145.5C1619.23 145.417 1620.08 145.292 1621 145.125L1623.25 154.75C1622.25 155.125 1621.02 155.417 1619.56 155.625C1618.15 155.875 1616.71 156 1615.25 156C1609.62 156 1605.04 154.333 1601.5 151C1598 147.667 1596.25 143.333 1596.25 138V94.375H1585.75V85.25H1596.25V68.625H1606.88V85.25H1621.88Z" fill="#CA402B"/>
<path d="M1680.25 101L1670.62 103.625C1669.71 101.25 1668.12 99 1665.88 96.875C1663.67 94.7083 1660.21 93.625 1655.5 93.625C1651.25 93.625 1647.71 94.625 1644.88 96.625C1642.04 98.5833 1640.62 101.042 1640.62 104C1640.62 106.667 1641.58 108.792 1643.5 110.375C1645.46 111.958 1648.5 113.25 1652.62 114.25L1663 116.75C1669.21 118.25 1673.83 120.562 1676.88 123.688C1679.96 126.812 1681.5 130.792 1681.5 135.625C1681.5 139.625 1680.35 143.208 1678.06 146.375C1675.77 149.542 1672.58 152.042 1668.5 153.875C1664.42 155.708 1659.67 156.625 1654.25 156.625C1647.12 156.625 1641.23 155.062 1636.56 151.938C1631.94 148.812 1629 144.292 1627.75 138.375L1637.88 135.875C1638.83 139.625 1640.67 142.438 1643.38 144.312C1646.12 146.188 1649.71 147.125 1654.12 147.125C1659.08 147.125 1663.04 146.062 1666 143.938C1669 141.771 1670.5 139.208 1670.5 136.25C1670.5 131.333 1667.04 128.042 1660.12 126.375L1648.5 123.625C1642.08 122.083 1637.38 119.729 1634.38 116.562C1631.38 113.396 1629.88 109.417 1629.88 104.625C1629.88 100.667 1630.98 97.1667 1633.19 94.125C1635.44 91.0833 1638.5 88.7083 1642.38 87C1646.25 85.25 1650.62 84.375 1655.5 84.375C1662.46 84.375 1667.9 85.9167 1671.81 89C1675.77 92.0417 1678.58 96.0417 1680.25 101Z" fill="#CA402B"/>
<path fill-rule="evenodd" clip-rule="evenodd" d="M757.438 154.25C761.062 155.917 765.083 156.75 769.5 156.75C773.583 156.75 777.021 156.146 779.812 154.938C782.646 153.688 784.917 152.208 786.625 150.5C788.333 148.75 789.542 147.125 790.25 145.625H790.75V155.125H801.5V109.125C801.5 103.583 800.583 99.1667 798.75 95.875C796.958 92.5417 794.667 90.0625 791.875 88.4375C789.125 86.7708 786.292 85.6875 783.375 85.1875C780.458 84.6458 777.875 84.375 775.625 84.375C772.125 84.375 768.562 84.8542 764.938 85.8125C761.354 86.7708 758.021 88.4375 754.938 90.8125C751.896 93.1875 749.458 96.5 747.625 100.75L757.875 104.375C759.042 101.833 761.083 99.4583 764 97.25C766.917 95 770.917 93.875 776 93.875C780.958 93.875 784.646 95.125 787.062 97.625C789.521 100.083 790.75 103.542 790.75 108V108.375C790.75 110.083 790.125 111.292 788.875 112C787.667 112.708 785.729 113.208 783.062 113.5C780.438 113.792 777 114.208 772.75 114.75C769.5 115.167 766.271 115.729 763.062 116.438C759.896 117.146 756.979 118.229 754.312 119.688C751.688 121.104 749.583 123.062 748 125.562C746.417 128.021 745.625 131.25 745.625 135.25C745.625 139.792 746.688 143.667 748.812 146.875C750.938 150.083 753.812 152.542 757.438 154.25ZM781.875 144.625C778.958 146.292 775.375 147.125 771.125 147.125C766.833 147.125 763.292 146.188 760.5 144.312C757.75 142.396 756.375 139.583 756.375 135.875C756.375 133.125 757.104 130.958 758.562 129.375C760.062 127.792 762.021 126.604 764.438 125.812C766.854 124.979 769.458 124.375 772.25 124L776.75 123.5C778.625 123.25 780.542 122.958 782.5 122.625C784.5 122.292 786.25 121.917 787.75 121.5C789.292 121.042 790.292 120.542 790.75 120V129.875C790.75 132.75 790 135.521 788.5 138.188C787 140.812 784.792 142.958 781.875 144.625Z" fill="#CA402B"/>
<path d="M825.875 155.125V113.125C825.875 109.042 826.646 105.583 828.188 102.75C829.771 99.9167 831.917 97.75 834.625 96.25C837.333 94.75 840.396 94 843.812 94C848.771 94 852.688 95.5625 855.562 98.6875C858.438 101.771 859.875 106.042 859.875 111.5V155.125H870.5V110.75C870.5 104.792 869.5 99.875 867.5 96C865.542 92.0833 862.792 89.1667 859.25 87.25C855.708 85.3333 851.583 84.375 846.875 84.375C841.583 84.375 837.271 85.4583 833.938 87.625C830.604 89.7917 828.125 92.6667 826.5 96.25H825.5V85.25H815.25V155.125H825.875Z" fill="#CA402B"/>
<path fill-rule="evenodd" clip-rule="evenodd" d="M892.688 154.25C896.312 155.917 900.333 156.75 904.75 156.75C908.833 156.75 912.271 156.146 915.062 154.938C917.896 153.688 920.167 152.208 921.875 150.5C923.583 148.75 924.792 147.125 925.5 145.625H926V155.125H936.75V109.125C936.75 103.583 935.833 99.1667 934 95.875C932.208 92.5417 929.917 90.0625 927.125 88.4375C924.375 86.7708 921.542 85.6875 918.625 85.1875C915.708 84.6458 913.125 84.375 910.875 84.375C907.375 84.375 903.812 84.8542 900.188 85.8125C896.604 86.7708 893.271 88.4375 890.188 90.8125C887.146 93.1875 884.708 96.5 882.875 100.75L893.125 104.375C894.292 101.833 896.333 99.4583 899.25 97.25C902.167 95 906.167 93.875 911.25 93.875C916.208 93.875 919.896 95.125 922.312 97.625C924.771 100.083 926 103.542 926 108V108.375C926 110.083 925.375 111.292 924.125 112C922.917 112.708 920.979 113.208 918.312 113.5C915.688 113.792 912.25 114.208 908 114.75C904.75 115.167 901.521 115.729 898.312 116.438C895.146 117.146 892.229 118.229 889.562 119.688C886.938 121.104 884.833 123.062 883.25 125.562C881.667 128.021 880.875 131.25 880.875 135.25C880.875 139.792 881.938 143.667 884.062 146.875C886.188 150.083 889.062 152.542 892.688 154.25ZM917.125 144.625C914.208 146.292 910.625 147.125 906.375 147.125C902.083 147.125 898.542 146.188 895.75 144.312C893 142.396 891.625 139.583 891.625 135.875C891.625 133.125 892.354 130.958 893.812 129.375C895.312 127.792 897.271 126.604 899.688 125.812C902.104 124.979 904.708 124.375 907.5 124L912 123.5C913.875 123.25 915.792 122.958 917.75 122.625C919.75 122.292 921.5 121.917 923 121.5C924.542 121.042 925.542 120.542 926 120V129.875C926 132.75 925.25 135.521 923.75 138.188C922.25 140.812 920.042 142.958 917.125 144.625Z" fill="#CA402B"/>
<path fill-rule="evenodd" clip-rule="evenodd" d="M960.125 178.5C964.667 181.333 970.833 182.75 978.625 182.75C984.208 182.75 989.271 181.854 993.812 180.062C998.396 178.312 1002.02 175.542 1004.69 171.75C1007.4 168 1008.75 163.125 1008.75 157.125V85.25H998.5V96.375H997.375C996.583 95.1667 995.458 93.625 994 91.75C992.583 89.8333 990.521 88.125 987.812 86.625C985.146 85.125 981.542 84.375 977 84.375C971.125 84.375 965.938 85.8542 961.438 88.8125C956.938 91.7292 953.417 95.8542 950.875 101.188C948.375 106.479 947.125 112.708 947.125 119.875C947.125 127.125 948.417 133.292 951 138.375C953.625 143.458 957.167 147.333 961.625 150C966.083 152.667 971.125 154 976.75 154C981.333 154 984.958 153.292 987.625 151.875C990.333 150.417 992.396 148.771 993.812 146.938C995.271 145.062 996.375 143.5 997.125 142.25H998.125V156.375C998.125 162.208 996.271 166.479 992.562 169.188C988.896 171.896 984.25 173.25 978.625 173.25C974.417 173.25 971.021 172.646 968.438 171.438C965.854 170.229 963.812 168.792 962.312 167.125C960.812 165.5 959.583 164.042 958.625 162.75L950.125 168.75C952.292 172.417 955.625 175.667 960.125 178.5ZM993.062 137.812C989.646 142.188 984.708 144.375 978.25 144.375C973.792 144.375 970.042 143.333 967 141.25C963.958 139.125 961.667 136.208 960.125 132.5C958.625 128.75 957.875 124.458 957.875 119.625C957.875 114.917 958.625 110.625 960.125 106.75C961.625 102.875 963.875 99.7917 966.875 97.5C969.917 95.1667 973.708 94 978.25 94C982.625 94 986.292 95.1042 989.25 97.3125C992.25 99.4792 994.5 102.479 996 106.312C997.5 110.146 998.25 114.583 998.25 119.625C998.25 127.375 996.521 133.438 993.062 137.812Z" fill="#CA402B"/>
<path fill-rule="evenodd" clip-rule="evenodd" d="M1034.31 152.125C1039.23 155.125 1045.04 156.625 1051.75 156.625C1056.46 156.625 1060.71 155.896 1064.5 154.438C1068.29 152.938 1071.46 150.875 1074 148.25C1076.58 145.583 1078.42 142.5 1079.5 139L1069.12 136C1068.25 138.417 1066.98 140.458 1065.31 142.125C1063.65 143.75 1061.67 144.979 1059.38 145.812C1057.08 146.604 1054.54 147 1051.75 147C1047.42 147 1043.6 146.062 1040.31 144.188C1037.02 142.271 1034.46 139.479 1032.62 135.812C1030.97 132.497 1030.06 128.518 1029.9 123.875H1080.62V119.25C1080.62 112.75 1079.75 107.271 1078 102.812C1076.25 98.3542 1073.9 94.7708 1070.94 92.0625C1068.02 89.3542 1064.77 87.3958 1061.19 86.1875C1057.6 84.9792 1054 84.375 1050.38 84.375C1044.08 84.375 1038.58 85.9167 1033.88 89C1029.21 92.0833 1025.58 96.3542 1023 101.812C1020.42 107.271 1019.12 113.583 1019.12 120.75C1019.12 127.875 1020.44 134.146 1023.06 139.562C1025.69 144.938 1029.44 149.125 1034.31 152.125ZM1029.92 114.625C1030.12 111.357 1030.92 108.274 1032.31 105.375C1033.94 102 1036.27 99.2708 1039.31 97.1875C1042.4 95.0625 1046.08 94 1050.38 94C1054.67 94 1058.25 95.0417 1061.12 97.125C1064.04 99.2083 1066.23 102.062 1067.69 105.688C1068.77 108.379 1069.45 111.359 1069.73 114.625H1029.92Z" fill="#CA402B"/>
</svg>
